#Comment line ignore any data following # character 
#Hierarchical Translation and Rotation (.htr) file 
[Header]	
#Header keywords are followed by a single value 
FileType HTR		#Single word string
DataType HTRS		#Translation followed by rotation and scale data
FileVersion 1		#integer
NumSegments 25		#integer
NumFrames 4		#integer
DataFrameRate 30		#integer, data frame rate in this file
EulerRotationOrder ZYX
CalibrationUnits mm
RotationUnits Degrees
GlobalAxisofGravity Y
BoneLengthAxis Y
ScaleFactor 1.00
[SegmentNames&Hierarchy]
#CHILD	PARENT
BN_Tick_Root GLOBAL
BN_Torso BN_Tick_Root
BN_L_Leg_Front01 BN_Torso
BN_L_Leg_Rear01 BN_Torso
BN_MetalTop BN_Torso
BN_Neck BN_Torso
BN_R_Leg_Front01 BN_Torso
BN_R_Leg_Rear01 BN_Torso
BN_Sack BN_Torso
BN_L_Leg_Front02 BN_L_Leg_Front01
BN_L_Leg_Front03 BN_L_Leg_Front02
BN_L_Leg_Rear02 BN_L_Leg_Rear01
BN_L_Leg_Rear03 BN_L_Leg_Rear02
BN_Head BN_Neck
BN_Needle BN_Head
BN_R_Leg_Front02 BN_R_Leg_Front01
BN_R_Leg_Front03 BN_R_Leg_Front02
BN_R_Leg_Rear02 BN_R_Leg_Rear01
BN_R_Leg_Rear03 BN_R_Leg_Rear02
BN_SackDef01 BN_Sack
BN_SackDef02 BN_Sack
BN_SackDef03 BN_Sack
BN_SackDef04 BN_Sack
BN_SackDef05 BN_Sack
BN_SackDef06 BN_Sack
[BasePosition]
#SegmentName Tx, Ty, Tz, Rx, Ry, Rz, BoneLength
BN_Tick_Root 0.000000 0.000000 0.000000 -90.000000 0.000000 0.000000 10.000000 
BN_Torso 0.000000 0.000000 0.000000 0.000000 0.000000 0.000000 10.000000 
BN_L_Leg_Front01 0.000000 0.000000 0.000000 0.000000 0.000000 0.000000 10.000000 
BN_L_Leg_Rear01 0.000000 0.000000 0.000000 0.000000 0.000000 0.000000 10.000000 
BN_MetalTop 0.000000 0.000000 0.000000 0.000000 0.000000 0.000000 10.000000 
BN_Neck 0.000000 0.000000 0.000000 0.000000 0.000000 0.000000 10.000000 
BN_R_Leg_Front01 0.000000 0.000000 0.000000 0.000000 0.000000 0.000000 10.000000 
BN_R_Leg_Rear01 0.000000 0.000000 0.000000 0.000000 0.000000 0.000000 10.000000 
BN_Sack 0.000000 0.000000 0.000000 0.000000 0.000000 0.000000 10.000000 
BN_L_Leg_Front02 0.000000 0.000000 0.000000 0.000000 0.000000 0.000000 10.000000 
BN_L_Leg_Front03 0.000000 0.000000 0.000000 0.000000 0.000000 0.000000 10.000000 
BN_L_Leg_Rear02 0.000000 0.000000 0.000000 0.000000 0.000000 0.000000 10.000000 
BN_L_Leg_Rear03 0.000000 0.000000 0.000000 0.000000 0.000000 0.000000 10.000000 
BN_Head 0.000000 0.000000 0.000000 0.000000 0.000000 0.000000 10.000000 
BN_Needle 0.000000 0.000000 0.000000 0.000000 0.000000 0.000000 10.000000 
BN_R_Leg_Front02 0.000000 0.000000 0.000000 0.000000 0.000000 0.000000 10.000000 
BN_R_Leg_Front03 0.000000 0.000000 0.000000 0.000000 0.000000 0.000000 10.000000 
BN_R_Leg_Rear02 0.000000 0.000000 0.000000 0.000000 0.000000 0.000000 10.000000 
BN_R_Leg_Rear03 0.000000 0.000000 0.000000 0.000000 0.000000 0.000000 10.000000 
BN_SackDef01 0.000000 0.000000 0.000000 0.000000 0.000000 0.000000 10.000000 
BN_SackDef02 0.000000 0.000000 0.000000 0.000000 0.000000 0.000000 10.000000 
BN_SackDef03 0.000000 0.000000 0.000000 0.000000 0.000000 0.000000 10.000000 
BN_SackDef04 0.000000 0.000000 0.000000 0.000000 0.000000 0.000000 10.000000 
BN_SackDef05 0.000000 0.000000 0.000000 0.000000 0.000000 0.000000 10.000000 
BN_SackDef06 0.000000 0.000000 0.000000 0.000000 0.000000 0.000000 10.000000 
#Beginning of Data. Separated by tabs
#Fr	Tx	Ty	Tz	Rx	Ry	Rz	SF
[BN_Tick_Root]
79 -290.572601 -334.248932 -0.000206 0.000000 0.000000 -15.294353 442.893677
80 -338.006500 -341.937958 -0.000210 0.000000 0.000000 -15.294353 480.801392
81 -388.257568 -350.083649 -0.000213 0.000000 0.000000 -15.294353 522.783386
82 -438.509430 -358.229462 -0.000216 0.000000 0.000000 -15.294353 566.232178
[BN_Torso]
79 -27.706816 -12.627849 213.857147 20.338120 0.703641 -3.561941 216.013916
80 -25.542156 -11.641391 213.676804 19.304489 1.358617 -4.234514 215.512650
81 -20.780010 -9.470928 213.496460 18.263218 2.001112 -4.918811 214.714340
82 -16.017773 -7.300424 213.316116 17.228573 2.665783 -5.581232 214.041199
[BN_L_Leg_Front01]
79 -68.477791 10.734189 -26.804373 -26.917467 42.851574 178.704437 74.316254
80 -68.477791 10.734189 -26.804373 -26.377840 42.897030 -171.230789 74.316254
81 -68.477791 10.734189 -26.804373 -24.811771 45.218288 -161.517120 74.316254
82 -68.477791 10.734189 -26.804373 -23.314583 50.144379 -164.715622 74.316254
[BN_L_Leg_Rear01]
79 -72.133743 -73.994843 -18.268616 60.840649 26.280109 -81.191925 104.939293
80 -72.133743 -73.994843 -18.268616 57.568462 28.393404 -72.259369 104.939293
81 -72.133743 -73.994843 -18.268616 54.897564 29.911898 -63.037312 104.939293
82 -72.133743 -73.994843 -18.268616 62.839470 21.413893 -73.969322 104.939293
[BN_MetalTop]
79 0.000008 13.737477 26.403606 90.000008 -12.928561 -89.999992 29.763546
80 0.000008 13.737477 26.403606 90.000008 -12.928561 -89.999992 29.763546
81 0.000008 13.737477 26.403606 90.000008 -12.928561 -89.999992 29.763546
82 0.000008 13.737477 26.403606 90.000008 -12.928561 -89.999992 29.763546
[BN_Neck]
79 0.000014 95.233284 10.002091 -118.111679 -77.345230 106.751091 95.757088
80 0.000014 95.233284 10.002091 -119.924507 -77.255119 108.694504 95.757088
81 0.000014 95.233284 10.002091 -121.709068 -77.151741 110.609741 95.757088
82 0.000014 95.233284 10.002091 -123.462105 -77.035255 112.493401 95.757088
[BN_R_Leg_Front01]
79 68.477768 10.734107 -26.804314 30.958185 55.925385 39.099609 74.316193
80 68.477768 10.734107 -26.804314 13.763413 69.231361 28.071737 74.316193
81 68.477768 10.734107 -26.804314 -77.628464 76.652206 -42.508976 74.316193
82 68.477768 10.734107 -26.804314 -30.454748 74.052284 -16.375326 74.316193
[BN_R_Leg_Rear01]
79 72.133751 -73.994873 -18.268644 -87.666245 22.928549 -25.378023 104.939331
80 72.133751 -73.994873 -18.268644 -83.420753 16.740965 -36.864780 104.939331
81 72.133751 -73.994873 -18.268644 -77.097839 19.506437 -53.813961 104.939331
82 72.133751 -73.994873 -18.268644 -69.511040 24.876059 -69.963150 104.939331
[BN_Sack]
79 -0.000000 -78.024918 33.657791 90.003105 -7.897530 -90.003128 84.974907
80 -0.000000 -78.024918 33.657791 90.001534 -8.109138 -90.003098 84.974907
81 -0.000000 -78.024918 33.657791 89.999947 -8.320734 -90.003052 84.974907
82 -0.000000 -78.024918 33.657791 90.001106 -8.357703 -90.002151 84.974907
[BN_L_Leg_Front02]
79 142.805023 -0.000015 -0.000104 0.072522 -9.370261 -124.279190 142.805023
80 142.805023 -0.000015 -0.000104 -1.798373 -6.351234 -104.343277 142.805023
81 142.805023 -0.000015 -0.000104 0.203751 0.175072 -80.649246 142.805023
82 142.805023 -0.000015 -0.000104 0.183846 0.287672 -92.002876 142.805023
[BN_L_Leg_Front03]
79 124.143021 -0.000045 0.000007 0.354604 -0.335261 131.254425 124.143021
80 124.143021 -0.000045 0.000007 0.352473 -0.415350 113.270889 124.143021
81 124.143021 -0.000045 0.000007 0.353469 -0.450936 85.275078 124.143021
82 124.143021 -0.000045 0.000007 0.351538 -0.443297 99.499657 124.143021
[BN_L_Leg_Rear02]
79 139.939041 0.000075 -0.000022 0.075474 -0.244036 98.461075 139.939041
80 139.939041 0.000075 -0.000022 0.064979 -0.226211 99.132118 139.939041
81 139.939041 0.000075 -0.000022 0.075825 -0.225501 97.168411 139.939041
82 139.939041 0.000075 -0.000022 2.234375 -11.969078 106.002869 139.939041
[BN_L_Leg_Rear03]
79 142.839615 0.000179 -0.000060 0.000559 -0.002280 -117.542244 142.839615
80 142.839615 0.000179 -0.000060 0.000573 -0.002276 -118.269661 142.839615
81 142.839615 0.000179 -0.000060 0.000530 -0.002287 -116.119926 142.839615
82 142.839615 0.000179 -0.000060 0.000717 -0.002235 -125.551514 142.839615
[BN_Head]
79 57.062447 -0.000030 0.000000 -11.689302 -3.616007 -12.189084 57.062447
80 57.062447 -0.000030 0.000000 -11.615615 -4.051522 -12.175903 57.062447
81 57.062447 -0.000030 0.000000 -11.541998 -4.487011 -12.163286 57.062447
82 57.062447 -0.000030 0.000000 -11.468434 -4.922468 -12.151218 57.062447
[BN_Needle]
79 33.915169 69.677582 -0.000053 0.000003 0.000030 87.896805 77.493256
80 33.915169 69.677582 -0.000053 0.000003 0.000030 87.896805 77.493256
81 33.915169 69.677582 -0.000053 0.000003 0.000030 87.896805 77.493256
82 33.915165 69.677582 -0.000052 0.000003 0.000030 87.896805 77.493248
[BN_R_Leg_Front02]
79 142.804947 -0.000060 0.000060 -3.438862 -12.470358 143.574127 142.804947
80 142.804947 -0.000060 0.000060 -8.885941 -8.959545 -178.125122 142.804947
81 142.804947 -0.000060 0.000060 -7.282252 -7.453584 -179.188980 142.804947
82 142.804947 -0.000060 0.000060 -5.453827 -8.494916 165.732178 142.804947
[BN_R_Leg_Front03]
79 124.143005 -0.000060 -0.000156 -0.353148 -0.261848 -144.181915 124.143005
80 124.143005 -0.000060 -0.000156 -0.351543 -0.140470 -161.713470 124.143005
81 124.143005 -0.000060 -0.000156 -0.352715 -0.144411 -161.407959 124.143005
82 124.143005 -0.000060 -0.000156 -0.353098 -0.187960 -155.410690 124.143005
[BN_R_Leg_Rear02]
79 139.939011 -0.000149 0.000015 -5.484186 -5.932110 -69.019463 139.939011
80 139.939011 -0.000149 0.000015 -4.509198 -10.357626 -90.512108 139.939011
81 139.939011 -0.000149 0.000015 -3.897301 -11.021086 -95.252632 139.939011
82 139.939011 -0.000149 0.000015 -6.261361 -10.767461 -82.822533 139.939011
[BN_R_Leg_Rear03]
79 142.839417 0.000075 0.000119 0.002338 0.000206 79.953354 142.839417
80 142.839417 0.000075 0.000119 0.002315 -0.000386 108.911980 142.839417
81 142.839417 0.000075 0.000119 0.002294 -0.000496 114.400177 142.839417
82 142.839417 0.000075 0.000119 0.002339 -0.000195 99.515388 142.839417
[BN_SackDef01]
79 249.782272 -3.760844 42.949425 -128.408218 -44.374973 -11.740845 253.475800
80 249.782272 -3.760844 42.949425 -128.408218 -44.374973 -11.740845 253.475800
81 249.782272 -3.760844 42.949425 -128.408218 -44.374973 -11.740845 253.475800
82 249.782272 -3.760844 42.949425 -128.408218 -44.374973 -11.740845 253.475800
[BN_SackDef02]
79 138.789795 -62.131748 45.674385 32.077126 -27.375721 -88.781525 158.773758
80 138.789795 -62.131748 45.674385 32.077126 -27.375721 -88.781525 158.773758
81 138.789795 -62.131748 45.674385 32.077126 -27.375721 -88.781525 158.773758
82 138.789795 -62.131748 45.674385 32.077126 -27.375721 -88.781525 158.773758
[BN_SackDef03]
79 249.782272 -3.760785 -42.949661 18.144459 44.375008 -11.740894 253.475845
80 249.782272 -3.760785 -42.949661 18.144459 44.375008 -11.740894 253.475845
81 249.782272 -3.760785 -42.949661 18.144459 44.375008 -11.740894 253.475845
82 249.782272 -3.760785 -42.949661 18.144459 44.375008 -11.740894 253.475845
[BN_SackDef04]
79 138.789780 -62.131645 -45.674473 146.059982 27.375723 -88.781555 158.773743
80 138.789780 -62.131645 -45.674473 146.059982 27.375723 -88.781555 158.773743
81 138.789780 -62.131645 -45.674473 146.059982 27.375723 -88.781555 158.773743
82 138.789780 -62.131645 -45.674473 146.059982 27.375723 -88.781555 158.773743
[BN_SackDef05]
79 118.790161 46.167137 -63.831196 0.155741 51.314110 90.605110 142.537460
80 118.790161 46.167137 -63.831196 0.155741 51.314110 90.605110 142.537460
81 118.790161 46.167137 -63.831196 0.155741 51.314110 90.605110 142.537460
82 118.790161 46.167137 -63.831196 0.155741 51.314110 90.605110 142.537460
[BN_SackDef06]
79 118.790207 46.167194 63.831219 152.058487 -51.314072 90.605019 142.537537
80 118.790207 46.167194 63.831219 152.058487 -51.314072 90.605019 142.537537
81 118.790207 46.167194 63.831219 152.058487 -51.314072 90.605019 142.537537
82 118.790207 46.167194 63.831219 152.058487 -51.314072 90.605019 142.537537
